<?xml version="1.0" encoding="UTF-8" standalone="no"?>
<svg width="162px" height="37px" viewBox="0 0 162 37" version="1.1" xmlns="http://www.w3.org/2000/svg" xmlns:xlink="http://www.w3.org/1999/xlink">
    <!-- Generator: Sketch 3.8.2 (29753) - http://www.bohemiancoding.com/sketch -->
    <title>Group</title>
    <desc>Created with Sketch.</desc>
    <defs></defs>
    <g id="Page-1" stroke="none" stroke-width="1" fill="none" fill-rule="evenodd">
        <g id="Group">
            <path d="M161.857,18.45 C161.857,8.532 153.83,0.49 143.927,0.49 C134.025,0.49 125.997,8.532 125.997,18.45 C125.997,28.37 134.025,36.412 143.927,36.412 C153.83,36.412 161.857,28.372 161.857,18.452 L161.857,18.45 Z" id="Shape" fill="#FFC827"></path>
            <path d="M133.905,25.032 L134.69,19.526 L134.695,19.492 L132.489,16.744 C132.509,15.454 132.619,14.059 132.749,13.942 C132.959,13.779 135.919,13.078 136.569,13.078 C136.629,13.078 136.649,13.086 136.649,13.086 C136.899,13.213 138.439,14.87 139.049,16.266 C139.679,17.706 139.839,20.466 139.659,20.651 C139.459,20.851 138.449,21.271 138.079,21.411 L138.029,21.431 L137.659,26.071 L145.209,30.131 L146.039,28.431 L139.535,24.441 L139.595,22.861 L141.675,21.701 L141.677,21.661 C141.681,21.611 142.161,16.191 139.787,13.421 L139.397,12.971 C138.237,11.611 137.451,10.721 137.1,10.721 C136.386,10.778 131.25,12.336 130.71,12.878 C130.58,13.008 130.146,17.568 130.153,17.608 C130.177,17.748 131.733,19.248 132.673,20.158 L132.303,22.321 C132.067,22.281 131.283,22.127 129.827,21.738 C128.891,21.508 126.86,21.028 126.139,20.878 L126.109,20.868 C126.244,21.898 126.462,22.898 126.764,23.864 C127.854,24.024 133.714,25.044 133.774,25.054 L133.854,25.069 L133.905,25.032 Z M157.53,14.022 L155.5,12.505 L156.094,8.909 L156.069,8.879 C155.859,8.639 152.179,5.439 151.949,5.369 L151.909,5.359 C151.559,5.359 146.669,7.669 146.109,7.929 L146.069,7.939 L146.059,7.979 C146.049,8.029 145.049,13.629 146.599,16.879 C147.059,17.839 148.099,18.489 148.829,18.559 C149.669,18.639 150.579,18.119 150.789,17.979 L151.542,18.579 L145.412,26.149 L147.052,27.589 L147.102,27.519 C147.127,27.479 149.812,24.139 150.702,23.079 C151.592,22.009 154.185,18.939 154.212,18.909 L154.258,18.855 L151.013,15.625 L150.963,15.705 C150.953,15.715 150.256,16.745 149.333,16.745 C149.183,16.745 149.033,16.715 148.883,16.661 C147.886,16.291 147.733,14.851 147.623,12.871 C147.573,10.943 147.933,9.553 147.997,9.331 C149.297,8.661 151.3,7.684 151.583,7.684 C151.803,7.704 152.953,8.944 153.713,9.834 L153.173,13.239 L157.211,16.856 L161.344,14.324 C161.154,13.488 160.9,12.676 160.594,11.889 L160.581,11.899 C159.901,12.343 157.821,13.749 157.491,13.979 L157.53,14.022 Z M14.27,16.542 L6.898,17.122 C7.161,12.902 8.846,11.162 10.898,11.162 C14.111,11.162 14.216,14.749 14.268,16.542 L14.27,16.542 Z M21.64,19.707 C21.588,15.804 21.114,7.47 11.794,7.47 C2.95,7.47 0,14.643 0,19.97 C0,22.45 0.685,25.984 2.95,28.357 C4.897,30.415 7.95,30.942 10.32,30.942 C15.217,30.942 19.587,28.622 21.114,27.512 C21.43,27.302 21.64,27.092 21.484,26.722 L20.587,24.085 L20.219,23.979 C17.949,25.349 15.369,26.139 12.689,26.139 C9.579,26.139 7.469,24.869 6.949,20.699 L21.639,19.699 L21.64,19.707 Z M40.09,8.05 L34.184,22.09 L28.96,8.05 L21.324,8.05 L30.697,30.31 L35.873,30.31 L46.475,8.05 L40.09,8.05 L40.09,8.05 Z M52.52,20.71 L67.21,19.707 C67.157,15.804 66.683,7.47 57.364,7.47 C48.518,7.47 45.569,14.643 45.569,19.97 C45.569,22.45 46.249,25.984 48.509,28.357 C50.459,30.415 53.509,30.942 55.879,30.942 C60.769,30.942 65.139,28.622 66.669,27.512 C66.979,27.302 67.189,27.092 67.039,26.722 L66.139,24.085 L65.769,23.979 C63.499,25.349 60.919,26.139 58.239,26.139 C55.129,26.139 53.019,24.869 52.499,20.699 L52.52,20.71 Z M52.467,17.123 C52.73,12.903 54.415,11.163 56.469,11.163 C59.679,11.163 59.779,14.749 59.839,16.543 L52.459,17.123 L52.467,17.123 Z M93.024,25.978 C92.564,26.075 92.072,26.142 91.579,26.142 C90.359,26.142 90.309,25.456 90.359,24.192 L90.519,16.226 C90.569,13.906 90.569,12.428 89.779,10.74 C89.089,9.316 86.879,7.47 82.039,7.47 C79.929,7.47 75.769,7.892 72.189,9.896 C71.559,10.318 71.399,10.476 71.449,11.056 L71.609,14.222 L73.499,14.696 C74.229,13.906 76.079,11.848 80.239,11.848 C80.869,11.848 82.289,11.901 83.179,12.638 C83.859,13.218 83.859,13.8 83.859,16.964 C72.389,18.39 70.129,19.444 70.129,24.4 C70.129,30.203 74.389,30.836 75.919,30.836 C78.919,30.836 81.869,29.729 84.449,28.726 C84.869,29.518 85.609,30.836 88.029,30.836 C89.709,30.836 91.439,30.326 92.689,29.849 L92.679,29.839 C93.152,29.569 93.205,29.359 93.205,28.889 L93.205,26.129 L92.995,25.969 L93.024,25.978 Z M83.892,25.351 C81.68,25.931 80.838,26.151 79.312,26.151 C77.205,26.151 76.572,25.471 76.572,23.671 C76.572,21.881 77.047,21.621 78.679,21.251 C79.099,21.151 81.259,20.721 83.889,20.361 L83.889,25.371 L83.892,25.351 Z M118.449,30.311 L118.449,16.65 C118.449,13.96 118.449,11.903 117.389,10.32 C116.599,9.107 114.859,7.472 111.749,7.472 C108.539,7.472 105.379,9.002 102.689,10.742 L102.789,8.052 L96,8.052 L96,30.312 L102.793,30.312 L102.793,15.012 C103.686,14.326 106.055,12.692 108.688,12.692 C111.688,12.692 111.688,14.59 111.688,18.177 L111.688,30.307 L118.428,30.307 L118.449,30.311 Z" id="Shape" fill="#5B4E53"></path>
        </g>
    </g>
</svg>